<svg width="24" height="24" viewBox="0 0 24 24" fill="none" xmlns="http://www.w3.org/2000/svg">
<path d="M5.63592 19.3309C5.56632 19.3309 5.50152 19.3033 5.45232 19.2553L4.74552 18.5485C4.64472 18.4477 4.64472 18.2821 4.74552 18.1813L16.5895 6.33727L9.72312 6.34447C9.57792 6.34447 9.46152 6.22807 9.46152 6.08527L9.46872 5.08687C9.46872 5.01487 9.49512 4.94887 9.54432 4.89967C9.59352 4.85047 9.65832 4.82287 9.72792 4.82287L18.4075 4.81567C18.5431 4.81567 18.6715 4.86847 18.7675 4.96447L19.0363 5.23327C19.1299 5.32927 19.1839 5.45887 19.1851 5.59567L19.1779 14.2693C19.1779 14.3401 19.1515 14.4049 19.1023 14.4541C19.0531 14.5033 18.9883 14.5309 18.9187 14.5309H17.9119C17.7703 14.5309 17.6587 14.4205 17.6575 14.2837L17.6659 7.41007L5.82192 19.2541C5.77272 19.3033 5.70792 19.3297 5.63832 19.3297L5.63592 19.3309Z" fill="white"/>
</svg>
